<svg class="logo" role="img" aria-label="Circuito Cinema Bologna Logo" xmlns="http://www.w3.org/2000/svg" viewBox="0 0 366.38 571.99"><path d="M103.19,571.99h-30.95C32.54,571.99.24,539.69.24,499.99s32.3-72,72-72h31.26v38.9h-31.26c-18.25,0-33.1,14.85-33.1,33.1s14.85,33.1,33.1,33.1h30.95v38.9Z"></path><path d="M212.82,571.99h-30.95c-39.7,0-72-32.3-72-72s32.3-72,72-72h31.26v38.9h-31.26c-18.25,0-33.1,14.85-33.1,33.1s14.85,33.1,33.1,33.1h30.95v38.9Z"></path><path d="M294.38,571.99h-34.4v-38.9h34.4c18.25,0,33.1-14.85,33.1-33.1s-14.85-33.1-33.1-33.1h-46.46v-38.9h46.46c39.7,0,72,32.3,72,72s-32.3,72-72,72"></path><rect x="228.09" y="398.17" width="38.9" height="141.95"></rect><polygon points="366.19 0 0 0 0 366.19 366.19 366.19 366.19 237.59 27.69 183.09 366.19 128.6 366.19 0"></polygon></svg>
